<svg xmlns="http://www.w3.org/2000/svg" viewBox="0 0 217075 333333" shape-rendering="geometricPrecision" text-rendering="geometricPrecision" image-rendering="optimizeQuality" fill-rule="evenodd" clip-rule="evenodd"><path d="M125322 256258c2502 1121 4869 2490 7069 4076 3131 1230 6539 1905 10106 1905 7635 0 14547-3094 19550-8097 5002-5002 8097-11915 8097-19550s-3095-14548-8097-19550c-5003-5003-11915-8097-19550-8097s-14547 3095-19550 8097c-5003 5003-8097 11915-8097 19550s3094 14547 8097 19550c750 750 1543 1457 2374 2117zM97372 85657c-315-2330-554-4608-720-6834-46-620-86-1235-121-1847-20054 2004-46030-10313-59156-24870C25897 39376 20986 22767 18863 89c8289-332 16578 227 24866 2188 31833 7530 49259 33763 52730 64557 634-13694 4293-25254 10319-34570 7867-12163 19639-20317 33916-24281 4693-1304 9602-2148 14674-2527 4181-311 7823 2826 8135 7006 311 4181-2825 7823-7006 8134-4175 311-8111 978-11765 1993-10702 2972-19468 8995-25247 17928-5934 9174-8854 21598-7692 37178 329 4409 979 9042 1972 13896 523-591 1064-1167 1622-1725 6977-6978 16617-11294 27263-11294 10645 0 20286 4316 27263 11294s11294 16617 11294 27263c0 6662-1690 12929-4664 18397l243-2c11125 0 21198 4510 28489 11801s11801 17364 11801 28490c0 11125-4510 21198-11801 28489-7277 7277-17349 11778-28489 11779v22l-446-3c3006 5490 4716 11791 4716 18490 0 10646-4316 20286-11294 27263-6671 6672-15776 10909-25868 11269 3348 5875 5261 12673 5261 19918v3c0 11125-4510 21198-11800 28489-7278 7277-17349 11778-28489 11778v22h-1c-11126 0-21199-4510-28489-11801-7291-7291-11801-17364-11801-28489v-1c0-7515 2058-14549 5641-20570-10113-346-19238-4587-25921-11270-6977-6977-11293-16617-11293-27263 0-6307 1515-12262 4202-17519-303 7-607 11-912 11-11125 0-21198-4510-28489-11801S2 187267 2 176142s4510-21198 11801-28489 17364-11801 28489-11801c222 0 443 3 664 6-3275-5668-5149-12246-5149-19261 0-10646 4316-20286 11293-27263 6978-6978 16617-11293 27263-11293 8624 0 16588 2833 23011 7618zm-22685 69493c518 847 1006 1716 1461 2603 590-955 1222-1881 1895-2775-1106 104-2225 163-3356 172zm-11073 53846c-1516 1078-3109 2054-4770 2916-1001 761-1949 1588-2837 2476-5002 5003-8097 11915-8097 19550s3094 14547 8097 19550 11915 8097 19550 8097c4283 0 8339-974 11958-2713 1020-637 2070-1229 3148-1775 1604-1049 3094-2260 4444-3609 5002-5002 8097-11915 8097-19550s-3095-14548-8097-19550-11915-8097-19550-8097c-4277 0-8328 972-11943 2705zm-2895-53285c-5228-5228-12451-8461-20429-8461s-15201 3234-20429 8462-8461 12451-8461 20429 3234 15201 8461 20428c5228 5228 12451 8462 20429 8462s15201-3234 20429-8462c5228-5227 8461-12450 8461-20429 0-7978-3234-15201-8461-20429zm47650-20936c-1049 1959-2262 3816-3622 5554 928-70 1865-106 2810-106 1494 0 2968 90 4416 262-1361-1786-2568-3697-3604-5710zM93910 97045c-5003-5003-11915-8097-19550-8097s-14547 3094-19550 8097-8097 11915-8097 19550 3094 14547 8097 19550 11915 8097 19550 8097h1c7635 0 14547-3094 19549-8097 5003-5003 8097-11915 8097-19549v-1c0-7635-3094-14547-8097-19550zm47970 58631c-1541-31-3061-150-4553-356 963 1313 1842 2693 2628 4131 576-1296 1220-2556 1924-3775zm20319-58098c-5002-5002-11915-8097-19550-8097s-14548 3095-19550 8097c-5002 5003-8097 11915-8097 19550v1h-21c0 7620 3103 14534 8118 19549 5003 5003 11915 8097 19549 8097h1c4584 0 8907-1115 12713-3090 766-482 1550-939 2350-1370 1622-1055 3126-2276 4488-3638 5002-5003 8097-11915 8097-19550s-3095-14547-8097-19550zm-20267 98460c-473-814-919-1645-1335-2494-447 900-930 1778-1446 2634 919-79 1846-127 2781-140zm55281-40654c-5228-5228-12451-8462-20429-8462s-15201 3234-20429 8462c-5228 5227-8461 12450-8461 20429 0 7978 3234 15201 8461 20429 5228 5228 12451 8461 20429 8461v22c7963 0 15187-3243 20429-8484 5228-5227 8461-12450 8461-20428s-3234-15202-8461-20429zm-87281 58557c-454 28-909 49-1367 61 222 368 439 739 649 1115 233-397 472-789 718-1176zm16334-55531c-4787-4787-11402-7748-18709-7748s-13921 2961-18708 7748-7748 11402-7748 18709 2961 13922 7748 18708c4787 4787 11402 7748 18708 7748 7307 0 13921-2961 18709-7748 4799-4799 7769-11415 7769-18708h-20c0-7307-2961-13922-7748-18709zm-2302 109996c-470-259-934-526-1393-804-4078-2202-8746-3452-13706-3452h-3v-22c-7962 0-15186 3242-20428 8483-5228 5228-8462 12450-8462 20428v1c0 7978 3234 15201 8461 20429 5228 5228 12451 8461 20429 8461h1v22c7962 0 15186-3242 20428-8484 5227-5228 8461-12450 8461-20428v-3c0-7977-3234-15200-8461-20427-1600-1600-3389-3014-5328-4205z" fill-rule="nonzero"/></svg>